<?xml version="1.0" encoding="UTF-8" standalone="no"?>
<svg
   version="1.0"
   width="440"
   height="560"
   viewBox="72 12 428 556"
   preserveAspectRatio="xMidYMid"
   id="svg42"
   xmlns="http://www.w3.org/2000/svg"
   xmlns:svg="http://www.w3.org/2000/svg">
  <defs
     id="defs42" />
  <g
     fill="#16202c"
     id="g5">
    <path
       d="M 251.07,517.01 C 216.41,483.42 122.95,391.72 115.19,383.73 100.41,368.49 92.76,351.56 91.06,330.49 c -0.68,-8.55 -0.11,-19.09 1.53,-26.96 3.29,-15.92 11.04,-30.98 22.43,-43.39 2.32,-2.55 14.84,-15.01 27.81,-27.7 l 23.56,-23.11 h 2.83 2.89 v 8.72 c 0,8.1 -0.11,8.84 -1.13,9.57 -2.49,1.76 -39.93,38.8 -44.29,43.9 -8.61,9.97 -13.31,17.79 -16.77,28.15 -2.89,8.67 -3.74,13.88 -3.74,22.94 -0.06,14.5 3.96,27.64 12.12,39.65 3.29,4.81 12.18,14.39 22.77,24.47 l 8.78,8.33 -1.02,-3.63 c -2.32,-8.38 -3,-14.39 -3,-26.05 0,-9.4 0.23,-12.4 1.25,-17.56 2.27,-11.44 7.31,-24.19 10.03,-25.21 3.06,-1.19 9.01,-2.27 12.23,-2.27 h 3.34 v 2.15 c 0,1.13 -0.51,2.89 -1.13,3.91 -1.93,3.23 -6.12,13.37 -7.59,18.52 -3.17,10.99 -4.19,27.24 -1.81,28.94 0.96,0.74 1.3,4.25 0.34,4.25 -1.98,0 7.42,28.09 10.31,30.53 0.57,0.45 1.02,1.42 1.02,2.1 0,1.42 2.38,5.78 6.57,12.12 3.4,5.15 7.36,9.4 24.58,26.28 7.31,7.19 19.65,19.31 27.41,26.96 l 14.05,13.88 -0.34,-4.25 c -2.78,-31.44 -14.67,-69.55 -29.96,-96.01 -4.7,-8.16 -13.03,-20.33 -19.54,-28.43 -11.04,-13.88 -12.91,-16.94 -15.52,-25.09 l -1.3,-4.25 0.06,-133.11 c 0,-73.18 0.23,-138.15 0.45,-144.26 l 0.45,-11.21 h 2.49 c 2.38,0 2.89,0.34 12.52,8.61 5.49,4.76 13.31,11.61 17.39,15.18 4.08,3.63 15.92,13.99 26.28,23.11 l 18.86,16.54 2.38,-0.34 c 1.3,-0.17 3.17,-0.57 4.08,-0.79 4.25,-1.25 12.29,-1.87 23.51,-1.87 10.48,0.06 13.14,0.23 19.09,1.42 l 6.91,1.36 3.85,-3.34 c 10.48,-9.12 60.38,-52.68 64.12,-56.02 4.02,-3.57 4.47,-3.85 6.97,-3.85 h 2.61 l 0.34,3.51 c 1.02,10.37 1.87,263.83 0.91,277.71 -0.91,13.93 -3.74,20.28 -15.92,35.4 -12.35,15.41 -17.96,24.02 -25.71,39.65 -12.91,25.83 -21.18,53.47 -24.64,82.19 -0.4,3 -0.57,5.89 -0.51,6.46 0.17,0.68 5.72,-4.36 20.33,-18.46 38.12,-36.76 42.71,-41.8 49.5,-53.47 6.8,-11.84 13.08,-28.94 13.76,-37.67 0.17,-2.32 0.62,-4.59 0.96,-5.04 1.08,-1.36 0.74,-15.41 -0.45,-21.01 -1.47,-7.02 -4.36,-15.46 -7.7,-22.6 -2.04,-4.42 -2.83,-6.8 -2.72,-8.1 0.17,-1.81 0.28,-1.87 2.83,-2.04 2.32,-0.17 4.13,0.17 11.84,2.21 1.81,0.45 2.27,0.96 3.79,4.3 9.18,19.94 10.99,42.2 5.21,64.63 l -1.02,4.13 5.72,-5.49 c 20.84,-19.94 27.47,-27.98 32.17,-38.74 6,-13.82 7.48,-27.7 4.47,-42.2 -2.89,-13.93 -7.82,-23.85 -18.01,-35.97 -4.13,-4.87 -24.75,-25.6 -40.5,-40.67 l -6.12,-5.89 0.17,-8.27 0.17,-8.33 h 2.95 2.95 l 23.9,23.51 c 13.2,12.91 25.83,25.66 28.15,28.32 8.27,9.35 14.73,20.56 18.46,31.78 9.63,28.89 4.47,61.17 -13.2,83.32 -4.08,5.1 -47.46,48.03 -118.15,116.85 -35.17,34.21 -32.12,31.44 -34.21,31.44 h -1.93 l 0.34,-18.24 c 0.4,-24.36 2.27,-39.48 7.48,-61 3.06,-12.52 9.52,-31.44 14.61,-42.82 3.51,-7.87 10.88,-22.2 14.22,-27.64 2.04,-3.4 3.74,-6.29 3.74,-6.46 0,-0.11 0.74,-1.19 1.7,-2.32 0.91,-1.13 3.57,-4.64 5.89,-7.76 2.32,-3.12 6.29,-8.21 8.84,-11.33 5.44,-6.63 8.5,-11.61 10.31,-16.71 l 1.3,-3.68 0.11,-47.86 c 0.06,-36.76 -0.06,-47.63 -0.57,-46.79 -1.64,2.66 -9.06,12.23 -11.89,15.41 -4.25,4.64 -13.48,12.23 -19.82,16.26 -17.67,11.21 -37.61,16.82 -59.59,16.82 -38.01,-0.06 -71.42,-17.79 -91.3,-48.48 -0.57,-0.85 -0.68,9.06 -0.57,46.79 0.17,46.9 0.17,47.92 1.36,50.98 2.66,7.08 5.04,10.82 13.2,20.67 7.08,8.55 12.4,16.03 17.45,24.41 18.46,30.76 30.81,68.31 34.95,106.14 0.91,8.16 1.98,29 1.98,38.12 v 5.49 h -2.1 c -1.98,-0.06 -2.83,-0.68 -10.14,-7.82 z m 50.47,-252.39 c 12.12,-2.27 25.32,-7.42 35.4,-13.93 23.79,-15.41 39.2,-41.86 36.82,-63.27 -1.08,-9.97 -5.72,-21.41 -12.46,-30.81 -4.47,-6.34 -15.29,-16.82 -21.92,-21.35 -13.31,-9.06 -29.23,-14.95 -44.46,-16.48 -26.28,-2.66 -55.28,7.87 -74.54,27.02 -12.29,12.23 -19.09,24.87 -21.64,40.33 -2.89,17.22 8.04,40.89 26.05,56.3 14.78,12.69 32.57,20.5 52.28,23 5.78,0.68 18.46,0.28 24.47,-0.79 z M 203.33,140.46 c 7.7,-9.23 20.67,-19.14 32.17,-24.64 5.72,-2.78 5.89,-2.89 4.81,-3.85 -0.57,-0.57 -6.91,-6.06 -14.05,-12.29 -7.19,-6.17 -17.11,-14.9 -22.09,-19.26 l -9.12,-8.04 -0.34,16.82 c -0.17,9.23 -0.4,27.36 -0.45,40.27 l -0.06,23.51 2.61,-3.96 c 1.47,-2.21 4.42,-6.06 6.51,-8.55 z m 174.85,-27.7 c -0.11,-21.98 -0.4,-39.99 -0.57,-40.1 -0.17,-0.06 -7.93,6.51 -17.28,14.61 -9.29,8.1 -19.48,16.99 -22.66,19.77 -3.23,2.78 -5.83,5.21 -5.83,5.38 0,0.17 2.21,1.47 4.98,2.89 8.72,4.42 17.73,10.93 25.09,17.96 6,5.83 13.25,14.44 15.18,18.18 0.34,0.68 0.79,1.25 0.96,1.25 0.17,0 0.23,-17.96 0.11,-39.93 z"
       id="path2" />
    <path
       d="m 277.3,230.92 c -6.46,-6.57 -7.19,-7.53 -7.19,-9.29 0,-1.13 0.17,-2.15 0.45,-2.27 0.23,-0.17 7.59,-0.45 16.43,-0.68 l 15.97,-0.4 v 2.38 c 0,2.27 -0.28,2.66 -7.48,9.97 -6.46,6.57 -7.7,7.59 -9.23,7.59 -1.53,0 -2.78,-1.02 -8.95,-7.31 z"
       id="path3" />
    <path
       d="m 243.14,198.07 c -2.21,-1.36 -3.57,-4.3 -4.36,-9.23 -0.74,-4.81 0.11,-11.72 1.87,-15.18 l 1.19,-2.38 5.15,0.23 c 4.53,0.17 5.21,0.34 6.17,1.47 1.7,2.15 2.44,5.66 2.49,12.01 0,5.32 -0.17,6.29 -1.53,9.06 -0.91,1.81 -2.21,3.51 -3.23,4.13 -2.15,1.25 -5.55,1.25 -7.76,-0.11 z"
       id="path4" />
    <path
       d="m 321.31,198.07 c -1.02,-0.62 -2.38,-2.27 -3.12,-3.85 -1.19,-2.38 -1.36,-3.51 -1.36,-9.23 0,-7.08 1.08,-11.38 3.17,-12.52 0.62,-0.28 3.23,-0.74 5.78,-0.91 l 4.7,-0.34 1.42,3.06 c 1.19,2.72 1.36,3.85 1.36,10.42 0,6.57 -0.11,7.65 -1.36,10.08 -0.74,1.59 -1.98,3.06 -2.95,3.51 -2.21,1.19 -5.55,1.08 -7.65,-0.23 z"
       id="path5" />
  </g>
  <g
     fill="#fefefe"
     id="g12"
     transform="translate(-8,6)">
    <path
       d="M 288.58,550.66 C 285.8,547.94 269.1,531.69 251.48,514.58 162.21,427.75 115.43,381.59 110.84,375.87 c -9.8,-12.12 -16.03,-25.6 -19.26,-41.4 -1.08,-5.32 -1.25,-7.99 -1.19,-18.13 0,-10.71 0.17,-12.63 1.53,-19.03 3.57,-16.88 11.33,-32.34 22.6,-45.26 2.32,-2.66 17.73,-18.13 34.21,-34.38 l 29.96,-29.62 0.4,-63.27 c 0.23,-34.83 0.57,-73.58 0.79,-86.15 l 0.34,-22.77 2.66,2.1 c 5.89,4.76 77.43,67.23 81.39,71.08 l 2.89,2.83 7.31,-1.36 c 10.14,-1.81 30.02,-1.81 39.88,0 l 6.51,1.19 1.42,-1.3 c 1.64,-1.47 11.5,-10.08 23.79,-20.79 4.81,-4.19 17.84,-15.52 28.89,-25.21 11.04,-9.63 23.05,-20.05 26.62,-23.17 l 6.51,-5.61 0.4,20.67 c 0.23,11.33 0.62,50.18 0.96,86.32 l 0.62,65.7 7.19,7.08 c 19.88,19.37 51.83,51.32 56.07,56.02 11.72,13.08 19.71,28.83 23.45,46.5 1.13,5.1 1.3,7.7 1.3,18.13 0.06,10.48 -0.11,13.08 -1.19,18.41 -3.17,15.63 -9.74,29.79 -19.31,41.69 -3.29,4.08 -34.55,35.12 -84.51,83.77 -12.63,12.35 -32.23,31.44 -43.56,42.48 -40.1,39.14 -54.71,53.19 -55.28,53.24 -0.28,0 -2.83,-2.27 -5.66,-4.98 z m 30.76,-34.89 c 0.23,1.7 -3.12,4.76 32.68,-30.08 70.69,-68.82 114.07,-111.75 118.15,-116.85 19.94,-24.92 23.45,-60.89 8.89,-90.68 -3.23,-6.57 -9.01,-15.18 -14.16,-21.01 -2.32,-2.66 -14.95,-15.41 -28.15,-28.32 -16.88,-16.6 -24.24,-23.51 -25.15,-23.51 -1.19,0 -1.25,0.23 -1.42,6.8 -0.11,5.66 0,6.91 0.74,7.42 0.79,0.62 0.91,5.04 0.85,41.8 v 41.12 l 1.53,0.34 c 13.93,3 24.07,8.38 34.21,18.18 8.16,7.93 15.63,18.75 18.86,27.36 l 1.36,3.74 -3.57,5.38 c -3.68,5.49 -10.25,12.46 -29.23,31.04 l -9.46,9.18 1.87,-5.55 c 8.38,-24.7 7.48,-47.92 -2.66,-69.95 -1.93,-4.25 -1.36,-3.91 -9.74,-5.89 -2.72,-0.62 -4.53,-0.79 -4.87,-0.45 -0.34,0.34 0.51,2.78 2.32,6.63 3.23,6.97 6.17,15.52 7.65,22.49 1.13,5.21 1.53,21.92 0.57,24.07 -0.28,0.62 -0.51,1.59 -0.57,2.15 -0.06,1.08 -4.59,3.17 -28.04,13.03 -7.59,3.17 -8.55,3.68 -7.08,4.02 0.91,0.17 8.04,1.25 15.8,2.38 7.82,1.13 14.22,2.1 14.22,2.1 0.06,0.06 -1.3,3.23 -3.06,7.02 -2.89,6.46 -3.17,6.97 -4.87,7.19 -0.96,0.17 -7.82,1.36 -15.18,2.61 -7.36,1.25 -14.05,2.27 -14.9,2.27 -0.79,0 -1.36,0.17 -1.19,0.45 0.11,0.23 5.21,2.72 11.33,5.49 6.12,2.83 11.1,5.32 11.1,5.55 0,1.3 -23.9,25.09 -60.83,60.44 l -5.61,5.38 0.45,-5.66 c 2.15,-30.53 11.1,-62.64 25.49,-91.47 7.76,-15.63 13.37,-24.24 25.71,-39.65 12.18,-15.12 15.01,-21.47 15.97,-35.4 0.85,-13.25 0,-264.46 -0.96,-274.31 -0.28,-3.06 -0.45,-3.57 -1.36,-3.4 -0.57,0.11 -3.51,2.32 -6.57,4.98 -3,2.66 -16.88,14.78 -30.76,26.9 -41.23,36.02 -36.53,32.17 -38.69,31.49 -1.02,-0.34 -4.93,-1.13 -8.67,-1.87 -5.61,-1.02 -8.61,-1.25 -17.28,-1.19 -10.03,0.11 -13.14,0.4 -25.21,2.66 -3.51,0.68 -4.64,0.68 -5.32,0.17 -1.08,-0.85 -34.78,-30.3 -45.14,-39.48 -16.03,-14.16 -27.47,-23.79 -28.21,-23.79 -1.47,0 -1.7,19.65 -1.7,153.78 l -0.06,131.41 1.3,4.25 c 2.61,8.16 4.47,11.21 15.52,25.09 6.51,8.1 14.84,20.28 19.54,28.43 13.25,22.88 24.47,56.02 28.43,83.83 1.36,9.4 2.49,22.37 2.04,22.83 -0.17,0.17 -7.36,-6.68 -16.03,-15.24 -8.61,-8.5 -23.39,-23.17 -32.85,-32.46 -9.46,-9.29 -17.05,-17.22 -16.94,-17.56 0.11,-0.34 5.44,-3.06 11.84,-6 l 11.61,-5.38 -3.74,-0.62 c -2.04,-0.34 -9.8,-1.59 -17.22,-2.78 -10.2,-1.64 -13.42,-2.38 -13.2,-2.89 0.17,-0.45 -0.06,-0.96 -0.51,-1.25 -0.96,-0.51 -6.06,-11.67 -5.49,-11.84 0.23,-0.06 6.8,-1.02 14.56,-2.15 7.82,-1.13 14.78,-2.21 15.58,-2.38 1.36,-0.34 1.36,-0.4 -0.57,-1.19 -6.68,-2.66 -31.83,-13.48 -33.7,-14.44 -1.93,-0.96 -2.15,-1.19 -1.3,-1.7 0.85,-0.57 0.85,-0.68 0,-1.3 -0.74,-0.51 -0.96,-2.04 -1.13,-7.65 -0.28,-8.1 0.79,-16.82 3.06,-24.64 1.47,-5.15 5.66,-15.29 7.59,-18.52 0.62,-1.02 1.13,-1.98 1.13,-2.21 0,-0.74 -3.06,-0.51 -7.02,0.4 -6.34,1.47 -6.46,1.59 -8.67,6.34 -9.57,20.79 -10.48,42.93 -2.72,67.46 1.08,3.29 1.87,6.06 1.76,6.17 -0.06,0.06 -7.76,-7.42 -17.11,-16.71 -13.71,-13.54 -17.67,-17.84 -20.5,-22.09 -2.1,-3.17 -3.51,-5.89 -3.51,-6.8 0,-1.98 5.32,-12.52 9.18,-18.07 1.64,-2.44 5.32,-6.8 8.16,-9.8 10.2,-10.59 21.18,-16.88 35.8,-20.45 l 2.38,-0.57 -0.11,-41.01 c -0.17,-38.52 -0.11,-41.01 0.79,-41.57 0.91,-0.57 1.02,-1.59 1.02,-7.7 0,-6.8 -0.06,-7.08 -1.19,-7.08 -0.79,0 -9.01,7.7 -24.7,23.11 -12.97,12.69 -25.49,25.15 -27.81,27.7 -17.33,18.86 -26,43.56 -23.9,67.86 1.76,20.33 9.57,37.33 24.07,52.34 13.14,13.59 142.9,140.47 144.21,140.98 0.23,0.11 0.51,-0.34 0.62,-0.91 0.11,-0.91 2.89,1.47 12.35,10.65 l 12.12,11.72 12.52,-12.06 c 11.27,-10.93 12.46,-11.95 12.63,-10.65 z"
       id="path6" />
    <path
       d="m 288.92,333.61 c -4.87,-6.29 -14.39,-15.8 -22.43,-22.43 -8.67,-7.14 -14.95,-13.14 -18.69,-17.79 -6.8,-8.55 -14.61,-21.35 -22.03,-36.08 -2.49,-4.98 -3.4,-9.23 -2.15,-9.97 0.23,-0.17 3,1.7 6.17,4.08 15.01,11.33 32,18.13 51.71,20.79 27.36,3.63 58.4,-5.1 79.64,-22.43 2.27,-1.87 4.36,-3.4 4.7,-3.4 3.06,0 -7.36,21.13 -19.48,39.37 -4.36,6.57 -6.57,9.23 -12.57,15.07 -3.96,3.85 -9.29,8.55 -11.78,10.42 -5.55,4.13 -18.69,17.22 -22.88,22.83 -2.72,3.57 -3.34,4.08 -4.87,4.08 -1.59,0 -2.27,-0.57 -5.32,-4.53 z"
       id="path7" />
    <path
       d="m 283.37,261.11 c -10.93,-1.36 -21.58,-4.47 -31.04,-9.06 -6.4,-3.06 -16.14,-9.4 -20.33,-13.14 l -2.78,-2.49 6.91,-4.64 c 3.79,-2.55 7.02,-4.64 7.19,-4.64 0.11,0 1.93,-1.19 3.96,-2.61 6.8,-4.76 25.38,-11.55 31.61,-11.55 2.38,0 3.79,1.42 1.98,1.87 l -1.19,0.34 1.13,1.59 c 0.62,0.85 3.96,4.36 7.31,7.7 l 6.17,6.12 7.48,-7.65 c 4.13,-4.19 7.48,-7.87 7.48,-8.21 0,-0.34 -0.51,-0.62 -1.19,-0.62 -0.62,0 -0.96,-0.23 -0.79,-0.57 1.47,-2.32 19.14,2.66 30.3,8.61 5.49,2.89 16.09,9.91 18.97,12.57 l 2.27,2.04 -2.83,2.61 c -10.42,9.46 -28.43,17.9 -44.75,20.96 -5.89,1.08 -21.75,1.53 -27.87,0.79 z"
       id="path8" />
    <path
       d="m 249.79,198.58 c -9.57,-2.72 -17.11,-10.93 -19.2,-21.18 -1.02,-4.98 -0.85,-7.87 0.68,-8.84 3.12,-2.04 8.61,-3.29 15.58,-3.57 6.8,-0.34 6.91,-0.28 6.91,0.91 0,0.79 -0.34,1.19 -1.13,1.19 -1.47,0 -3.17,3.34 -3.96,8.04 -1.13,6.51 0.85,13.25 4.53,15.41 1.76,1.02 1.93,1.08 3.68,0.11 5.1,-2.78 6.85,-14.73 3.12,-21.13 l -1.08,-1.87 h 2.27 c 5.83,0 14.33,10.2 16.65,19.94 1.42,5.95 1.19,7.02 -1.36,8.33 -4.64,2.38 -10.08,3.46 -17.33,3.4 -3.74,0 -7.93,-0.34 -9.35,-0.74 z"
       id="path9" />
    <path
       d="m 319.57,198.47 c -1.64,-0.4 -4.42,-1.36 -6.23,-2.04 -3.06,-1.25 -3.23,-1.42 -3.4,-3.4 -0.23,-2.89 1.25,-8.44 3.4,-12.91 1.19,-2.49 3.06,-4.98 5.89,-7.76 4.08,-4.02 4.25,-4.13 6.97,-4.13 h 2.83 l -1.19,2.72 c -0.96,2.04 -1.25,3.85 -1.25,7.76 -0.06,4.42 0.17,5.49 1.36,7.93 0.85,1.64 2.21,3.23 3.34,3.91 1.7,1.02 1.98,1.02 3.74,0.17 3.12,-1.47 4.53,-5.21 4.53,-12.01 0,-4.76 -0.23,-6.17 -1.36,-8.61 -0.74,-1.64 -1.7,-3 -2.1,-3 -0.45,0 -0.79,-0.51 -0.79,-1.13 0,-1.08 0.4,-1.13 6.17,-1.13 4.64,0 7.14,0.28 10.03,1.19 6.57,2.04 7.02,2.38 7.02,5.49 -0.06,6.85 -3.79,15.8 -8.78,20.79 -3.06,3 -7.59,5.55 -11.67,6.46 -3.63,0.85 -15.01,0.68 -18.52,-0.28 z"
       id="path10" />
    <path
       d="m 210.31,120.81 c 0.23,-9.86 0.4,-21.69 0.4,-26.34 v -8.38 h 3 c 2.89,0 3.06,0.11 7.76,4.3 2.66,2.38 8.84,7.93 13.76,12.23 4.87,4.36 8.89,8.21 8.89,8.61 0,0.34 -1.19,1.25 -2.66,2.04 -8.72,4.59 -21.98,15.07 -27.53,21.81 -1.64,1.98 -3.17,3.63 -3.46,3.63 -0.34,0.06 -0.4,-7.19 -0.17,-17.9 z"
       id="path11" />
    <path
       d="m 369.58,130.61 c -7.65,-7.7 -13.88,-12.57 -22.49,-17.56 -1.53,-0.85 -2.72,-1.76 -2.72,-2.04 0,-0.28 1.87,-2.15 4.13,-4.13 2.21,-2.04 8.55,-7.65 13.99,-12.52 9.86,-8.72 9.91,-8.84 12.63,-8.84 h 2.66 v 16.03 c 0,8.78 0.17,20.73 0.4,26.62 0.17,6.23 0.11,10.54 -0.17,10.54 -0.28,-0.06 -4.08,-3.68 -8.44,-8.1 z"
       id="path12" />
  </g>
  <g
     fill="#ee7926"
     id="g22"
     transform="translate(-8,6)">
    <path
       d="m 281.56,529.7 -12.12,-11.78 v -3.63 c 0,-8.5 -1.08,-30.3 -1.81,-37.38 -2.78,-25.38 -9.8,-52.73 -19.2,-74.77 -1.13,-2.61 -2.04,-4.98 -2.04,-5.21 0,-0.23 0.85,-0.45 1.87,-0.45 2.66,0 32,17.16 41.23,24.19 2.1,1.59 4.02,3 4.42,3.23 0.34,0.23 1.7,-0.45 3.06,-1.53 5.27,-4.3 18.13,-12.35 34.32,-21.58 6,-3.46 7.99,-4.3 9.52,-4.19 l 1.87,0.17 -0.91,1.7 c -3.57,6.8 -11.61,30.36 -14.67,42.88 -5.04,20.84 -7.02,36.59 -7.48,59.42 l -0.34,16.82 -12.35,11.95 c -6.74,6.57 -12.52,11.95 -12.8,11.95 -0.23,-0.06 -5.89,-5.32 -12.57,-11.78 z"
       id="path13" />
    <path
       d="m 291.08,406.91 c -2.72,-3 -11.1,-9.69 -17.79,-14.16 -6.34,-4.3 -11.16,-7.19 -33.93,-20.67 -7.19,-4.25 -9.29,-5.78 -10.42,-7.59 -1.98,-3.12 -9.23,-12.69 -13.71,-18.13 -10.37,-12.52 -13.54,-18.46 -14.44,-27.13 -0.4,-3.57 -0.34,-3.74 0.79,-3.74 0.68,0 3.23,1.7 5.72,3.85 5.66,4.81 12.57,9.12 27.24,16.99 13.42,7.19 15.86,8.61 23.22,13.48 10.93,7.19 25.15,19.14 32.46,27.13 l 3.85,4.3 7.48,-7.48 c 13.59,-13.65 28.94,-24.92 46.5,-34.21 17.9,-9.46 28.38,-15.86 33.87,-20.73 1.81,-1.59 3.06,-2.21 4.36,-2.21 h 1.76 l -0.34,3.29 c -0.91,7.59 -4.02,13.76 -11.61,23.05 -2.55,3.12 -6.51,8.21 -8.84,11.33 -2.32,3.12 -4.93,6.57 -5.78,7.65 -0.85,1.08 -1.87,2.61 -2.27,3.4 -0.45,0.91 -3.96,3.29 -9.35,6.46 -19.82,11.67 -28.83,17.16 -35.23,21.52 -6.57,4.42 -15.29,11.33 -17.5,13.82 -1.53,1.76 -4.3,1.64 -6.06,-0.23 z"
       id="path14" />
    <path
       d="m 291.3,360.29 c -1.19,-1.93 -13.25,-12.46 -20.16,-17.67 -8.95,-6.68 -17.96,-12.35 -31.72,-19.88 -19.2,-10.54 -25.49,-14.84 -33.93,-23 l -4.93,-4.76 -0.06,-9.86 v -9.86 h 1.87 c 1.36,0 2.78,0.68 5.21,2.55 9.4,7.31 29.28,17.39 48.82,24.7 5.27,1.98 6.74,2.89 12.01,7.14 7.42,6.12 17.39,16.03 22.15,22.2 1.98,2.55 3.79,4.42 3.96,4.19 0.23,-0.28 1.81,-2.27 3.63,-4.53 4.76,-6.06 12.35,-13.88 18.13,-18.63 2.83,-2.32 6.17,-5.04 7.42,-6.06 1.3,-1.13 4.76,-2.78 8.21,-4.08 20.28,-7.36 37.44,-16.14 49.11,-25.04 7.14,-5.44 6.97,-5.61 6.97,6.68 v 10.31 l -2.38,2.61 c -8.38,9.06 -15.52,13.99 -39.54,27.19 -17.73,9.8 -33.7,21.07 -45.09,31.95 -4.42,4.19 -5.49,4.93 -7.08,4.93 -1.3,0 -2.15,-0.34 -2.61,-1.08 z"
       id="path15" />
    <path
       d="m 119.57,349.19 c -2.78,-5.78 -4.7,-11.38 -6.12,-17.84 -1.42,-6.74 -1.42,-22.66 0.06,-29.45 1.19,-5.44 4.53,-15.75 5.44,-16.65 0.74,-0.74 4.93,0.28 19.43,4.98 l 10.99,3.57 -5.89,-7.14 c -3.29,-3.91 -7.82,-9.63 -10.14,-12.69 l -4.19,-5.55 1.19,-1.53 c 0.62,-0.85 3.23,-3.74 5.72,-6.51 l 4.53,-4.93 3.96,3.51 c 12.97,11.61 18.86,16.77 18.97,16.65 0.06,-0.06 -0.4,-1.76 -1.02,-3.74 -0.62,-2.04 -2.66,-9.63 -4.53,-16.94 l -3.34,-13.25 1.3,-1.19 c 0.68,-0.68 5.72,-5.61 11.21,-10.99 5.49,-5.38 10.31,-9.74 10.65,-9.74 0.45,0 0.62,11.55 0.62,42.2 v 42.14 l -2.38,0.62 c -14.61,3.51 -25.6,9.8 -35.8,20.39 -2.83,3 -6.51,7.36 -8.16,9.8 -3.34,4.81 -9.18,15.97 -9.18,17.5 0,2.32 -1.19,1.19 -3.34,-3.23 z"
       id="path16" />
    <path
       d="m 465.81,353.1 c -6.34,-18.18 -21.69,-35.51 -38.57,-43.61 -3.57,-1.7 -10.48,-3.91 -15.58,-4.98 l -1.59,-0.34 v -42.2 c 0,-33.36 0.17,-42.2 0.74,-42.2 1.13,0.06 23.96,22.6 23.28,23.11 -0.34,0.23 -1.93,5.83 -3.57,12.46 -1.64,6.63 -3.57,13.99 -4.3,16.31 -0.74,2.32 -1.25,4.19 -1.13,4.19 0.11,0 5.1,-4.47 11.16,-9.91 6,-5.44 11.21,-9.91 11.61,-9.91 0.62,0 6.8,6.34 9.86,10.25 l 1.7,2.15 -5.49,7.25 c -3.06,3.96 -7.42,9.46 -9.74,12.23 -2.32,2.72 -4.08,5.1 -3.91,5.27 0.11,0.17 5.1,-1.25 10.93,-3.12 5.89,-1.87 12.35,-3.85 14.33,-4.42 4.36,-1.19 4.3,-1.19 6.51,5.55 4.93,14.84 5.55,30.42 1.76,44.86 -1.36,5.27 -4.98,14.44 -6.74,16.88 -0.85,1.19 -0.91,1.25 -1.25,0.17 z"
       id="path17" />
    <path
       d="m 240.67,287.68 c -13.88,-11.95 -28.04,-27.24 -34.78,-37.61 -5.49,-8.44 -5.38,-7.99 -5.38,-19.54 0,-8.16 0.17,-10.2 0.74,-10.2 0.45,0 2.61,2.72 4.76,6.12 4.93,7.48 10.03,13.48 15.58,18.29 3.23,2.83 4.08,3.91 3.68,4.53 -1.25,1.98 15.12,30.93 23.22,41.18 l 1.47,1.81 h -1.98 c -1.64,0 -2.83,-0.74 -7.31,-4.59 z"
       id="path18" />
    <path
       d="m 339.84,291.47 c 0,-0.11 2.15,-3.46 4.81,-7.42 7.7,-11.5 20.96,-35.97 19.54,-35.97 -0.34,0 1.93,-2.49 4.98,-5.49 5.38,-5.38 12.35,-14.16 15.52,-19.6 0.85,-1.47 1.93,-2.66 2.44,-2.66 0.74,0 0.85,1.42 0.85,10.42 l -0.06,10.42 -2.89,5.04 c -4.59,8.1 -11.61,16.82 -21.35,26.56 -12.97,13.03 -19.82,18.92 -22.09,18.92 -0.96,0 -1.76,-0.11 -1.76,-0.23 z"
       id="path19" />
    <path
       d="m 354.85,236.36 c -3,-2.72 -13.71,-9.74 -18.97,-12.52 -6.12,-3.29 -13.76,-6.17 -21.35,-8.1 l -6.68,-1.7 -12.18,0.34 c -6.68,0.17 -13.82,0.45 -15.8,0.57 -7.99,0.57 -23.73,6.29 -30.87,11.27 -2.04,1.42 -3.85,2.61 -3.96,2.61 -0.17,0 -3.34,2.04 -7.08,4.59 l -6.8,4.53 -1.93,-1.47 c -3.4,-2.55 -10.42,-10.88 -14.22,-16.82 l -2.04,-3.29 9.46,-4.76 c 5.27,-2.66 9.4,-4.81 9.23,-4.87 -0.17,0 -5.49,-0.28 -11.84,-0.57 -6.34,-0.28 -11.61,-0.62 -11.72,-0.68 -0.4,-0.45 -2.95,-10.03 -3.23,-12.29 -0.28,-2.32 -0.17,-2.72 1.47,-4.3 1.02,-0.96 3.96,-3.96 6.63,-6.74 l 4.81,-5.04 -6.34,0.28 -6.34,0.34 0.34,-1.81 c 0.85,-4.59 3.29,-11.78 5.55,-16.48 7.31,-15.24 22.49,-29.96 39.37,-38.23 2.66,-1.3 5.27,-2.61 5.83,-2.89 0.62,-0.34 1.13,-0.51 1.19,-0.4 0.06,0.11 1.59,3.51 3.4,7.53 1.76,4.08 5.27,11.44 7.7,16.43 l 4.47,9.06 -0.11,-19.09 -0.11,-19.03 4.19,-0.62 c 2.32,-0.34 4.42,-0.45 4.59,-0.23 0.23,0.28 1.59,5.32 3.12,11.21 4.08,16.03 8.84,33.36 9.29,33.87 0.51,0.51 4.81,-14.61 8.84,-30.76 1.42,-5.78 2.83,-11.44 3.17,-12.57 0.51,-1.98 0.74,-2.15 2.55,-2.15 1.08,0 3.17,0.28 4.59,0.68 l 2.61,0.62 -0.28,19.6 -0.34,19.6 4.25,-8.78 c 2.32,-4.81 5.89,-12.46 7.93,-16.99 1.98,-4.47 3.74,-8.27 3.85,-8.44 0.51,-0.45 11.38,5.32 17.16,9.12 7.42,4.98 17.9,15.01 22.77,21.92 5.44,7.59 9.63,16.65 11.61,25.15 l 0.74,3.23 h -6.23 -6.23 l 6.34,6.8 6.4,6.8 -0.34,2.83 c -0.17,1.59 -0.91,4.87 -1.53,7.31 l -1.19,4.42 -4.3,0.4 c -2.38,0.17 -6.63,0.34 -9.46,0.4 -2.83,0 -6.23,0.23 -7.59,0.4 l -2.44,0.4 9.06,4.53 c 5.04,2.49 9.12,4.76 9.12,5.04 0,1.98 -12.69,18.07 -16.26,20.62 l -1.59,1.13 -2.27,-1.98 z m -86.43,-39.82 c 2.27,-0.62 5.15,-1.7 6.34,-2.32 2.44,-1.19 2.38,-0.85 0.96,-6.46 -0.79,-3.17 -3.4,-8.1 -6,-11.38 -2.49,-3.23 -7.65,-7.25 -8.72,-6.91 -0.4,0.17 -1.13,-0.23 -1.59,-0.79 -1.13,-1.42 -8.33,-2.38 -13.93,-1.93 -4.3,0.34 -11.78,2.61 -13.14,3.96 -1.19,1.19 -0.06,6.8 2.55,12.18 3.29,6.91 9.23,11.95 16.6,13.99 4.13,1.13 12.12,0.96 16.94,-0.34 z m 67.97,0.51 c 4.13,-0.91 8.61,-3.46 11.72,-6.57 3.63,-3.57 7.14,-10.42 8.16,-15.75 0.91,-4.64 0.85,-4.7 -5.83,-6.8 -3.06,-0.96 -5.66,-1.42 -8.5,-1.36 -5.55,0 -12.35,1.3 -13.14,2.44 -0.4,0.51 -1.36,0.91 -2.21,0.91 -2.27,0 -9.29,7.19 -11.55,11.89 -1.93,3.96 -3.79,10.42 -3.23,11.27 0.34,0.62 5.55,2.66 9.63,3.74 3.4,0.91 11.44,1.08 14.95,0.23 z"
       id="path20" />
    <path
       d="m 200.51,132.77 c 0,-38.8 0.62,-69.89 1.47,-69.89 0.4,0 5.27,4.02 10.82,8.95 5.61,4.87 16.99,14.84 25.32,22.15 10.37,9.01 15.01,13.37 14.61,13.76 -0.34,0.34 -2.72,1.59 -5.32,2.72 l -4.64,2.15 -6.8,-6.06 c -3.74,-3.29 -10.03,-8.89 -13.93,-12.4 -4.3,-3.85 -7.53,-6.34 -8.27,-6.34 -1.19,0 -1.19,0.06 -1.59,24.81 -0.28,17.67 -0.62,25.04 -1.08,25.66 -2.89,3.91 -6.85,9.97 -8.55,13.03 l -2.04,3.63 v -22.15 z"
       id="path21" />
    <path
       d="m 385.21,150.27 c -1.36,-2.44 -3.85,-6.23 -5.49,-8.5 l -3.06,-4.13 -0.23,-7.48 c -0.11,-4.13 -0.28,-15.52 -0.28,-25.21 -0.06,-16.48 -0.11,-17.73 -1.02,-17.73 -0.57,0 -3.23,1.98 -5.89,4.42 -2.72,2.38 -9.01,8.04 -14.1,12.52 l -9.18,8.1 -5.27,-2.44 c -5.1,-2.38 -5.27,-2.55 -4.36,-3.57 0.51,-0.57 8.5,-7.59 17.67,-15.63 9.18,-7.99 20.28,-17.62 24.58,-21.41 4.3,-3.79 8.04,-6.91 8.27,-6.91 0.23,0 0.57,1.08 0.74,2.44 0.34,2.72 0.57,89.89 0.28,89.89 -0.11,0 -1.36,-1.98 -2.66,-4.36 z"
       id="path22" />
  </g>
  <g
     fill="#a33b15"
     id="g42"
     transform="translate(-8,6)">
    <path
       d="m 290.85,424.69 c -5.32,-4.36 -13.37,-9.52 -28.49,-18.35 -9.52,-5.55 -14.16,-7.93 -14.56,-7.59 -0.51,0.4 -1.13,-0.51 -2.27,-3.29 -2.72,-6.51 -7.59,-15.97 -12.01,-23.28 -2.32,-3.79 -4.08,-7.31 -3.91,-7.76 0.23,-0.51 3.17,0.96 10.37,5.27 5.55,3.29 14.16,8.44 19.14,11.38 15.52,9.23 25.49,16.31 32.34,22.88 l 2.83,2.78 1.13,-1.25 c 4.59,-5.15 19.37,-15.63 36.02,-25.49 5.38,-3.17 13.59,-8.04 18.18,-10.82 7.31,-4.36 10.03,-5.61 10.03,-4.76 0,0.11 -1.7,3 -3.74,6.4 -3.85,6.29 -13.82,25.88 -13.82,27.13 0,0.4 -0.28,0.91 -0.68,1.13 -0.4,0.23 -0.45,0.17 -0.23,-0.23 0.79,-1.3 -0.85,-0.62 -8.27,3.63 -16.82,9.63 -28.55,17.05 -35.29,22.32 l -3.4,2.66 -3.4,-2.78 z"
       id="path23" />
    <path
       d="m 189.35,422.37 c -2.89,-3.91 -5.83,-8.5 -8.1,-12.69 -2.55,-4.64 -2.15,-5.1 3.51,-4.3 11.21,1.64 33.7,5.38 34.66,5.72 0.74,0.34 -1.87,1.76 -10.48,5.72 -6.34,2.89 -12.91,6 -14.5,6.85 l -3,1.59 -2.1,-2.89 z"
       id="path24" />
    <path
       d="m 384.19,418.91 c -6.91,-3.29 -13.14,-6.06 -13.76,-6.29 -2.15,-0.68 -0.79,-1.7 2.89,-2.15 1.98,-0.28 9.35,-1.47 16.37,-2.66 7.02,-1.19 14.39,-2.38 16.37,-2.61 l 3.63,-0.4 -2.38,4.47 c -2.66,4.93 -9.57,15.52 -10.2,15.52 -0.17,0 -6,-2.66 -12.91,-5.89 z"
       id="path25" />
    <path
       d="m 171.9,387.76 c -2.15,-6.8 -4.3,-16.2 -3.85,-16.88 0.51,-0.96 2.55,-0.23 18.52,6.57 9.06,3.85 18.46,7.82 20.9,8.84 2.38,0.96 4.36,1.98 4.36,2.21 0,0.23 -1.98,0.74 -4.36,1.13 -10.25,1.59 -31.1,4.59 -32.29,4.59 -1.13,0 -1.53,-0.74 -3.29,-6.46 z"
       id="path26" />
    <path
       d="m 402.15,392.8 c -23.79,-3.57 -24.98,-3.79 -24.36,-4.59 0.34,-0.4 3.51,-1.93 6.97,-3.4 3.51,-1.47 12.52,-5.27 20.11,-8.5 7.59,-3.23 14.16,-5.89 14.67,-5.89 0.74,0 0.79,0.45 0.51,2.78 -0.45,3.29 -2.04,9.69 -4.08,16.37 -1.64,5.49 -0.4,5.21 -13.82,3.23 z"
       id="path27" />
    <path
       d="m 289.43,379.72 c -7.59,-8.55 -21.92,-20.67 -33.36,-28.21 -7.36,-4.87 -9.8,-6.29 -23.28,-13.54 -14.27,-7.65 -21.18,-11.95 -27.41,-17.11 l -4.81,-3.96 -0.06,-12.29 c 0,-6.91 0.23,-12.35 0.51,-12.35 0.28,0 2.38,1.93 4.64,4.3 7.99,8.27 15.92,13.71 35.46,24.47 13.76,7.53 22.77,13.2 31.72,19.88 6.85,5.15 18.63,15.46 20.22,17.67 0.85,1.25 0.91,1.19 6.12,-3.74 11.5,-10.99 27.41,-22.26 45.2,-32.06 24.41,-13.42 31.89,-18.63 39.99,-27.81 1.47,-1.64 2.89,-3.06 3.17,-3.17 0.23,-0.11 0.45,5.78 0.45,13.14 0,11.84 -0.11,13.37 -0.91,13.37 -0.51,0 -2.04,1.02 -3.46,2.21 -5.49,4.87 -15.97,11.27 -33.87,20.73 -18.01,9.52 -33.02,20.67 -47.29,35.06 -4.53,4.53 -8.33,8.21 -8.5,8.21 -0.17,0 -2.21,-2.21 -4.53,-4.81 z"
       id="path28" />
    <path
       d="m 256.02,304.73 c -23.17,-8.95 -40.38,-17.62 -50.13,-25.21 -1.81,-1.42 -3.79,-2.55 -4.36,-2.55 -0.96,0 -1.02,-1.02 -1.02,-19.82 0,-10.88 0.23,-19.82 0.45,-19.82 0.23,0 1.13,1.47 2.04,3.29 2.32,4.7 6.85,11.5 12.06,17.96 5.1,6.34 19.31,20.62 27.07,27.13 2.83,2.38 8.16,7.31 11.89,10.99 3.74,3.74 8.21,7.93 9.91,9.35 1.7,1.47 2.83,2.66 2.55,2.61 -0.34,0 -5.04,-1.76 -10.48,-3.91 z"
       id="path29" />
    <path
       d="m 331.86,299.29 c 5.15,-5.1 9.52,-9.29 9.63,-9.29 0.11,0 2.72,-2.21 5.78,-4.87 8.78,-7.65 23.34,-22.49 28.04,-28.66 4.19,-5.44 9.57,-13.99 10.99,-17.45 0.4,-0.91 0.91,-1.7 1.19,-1.7 0.28,0 0.51,8.5 0.51,19.14 l -0.06,19.09 -4.64,3.51 c -13.03,9.8 -29.11,17.9 -52,26.22 l -8.89,3.23 9.46,-9.23 z"
       id="path30" />
    <path
       d="m 143.58,294.25 c -6.85,-2.32 -15.24,-4.98 -18.69,-6 -3.4,-0.96 -6.34,-1.87 -6.4,-1.98 -0.11,-0.06 1.08,-2.66 2.66,-5.72 2.83,-5.38 8.27,-13.25 9.4,-13.54 0.34,-0.06 2.38,2.32 4.59,5.32 2.27,3 7.48,9.52 11.61,14.5 7.7,9.12 9.8,11.72 9.46,11.61 -0.06,0 -5.78,-1.93 -12.63,-4.19 z"
       id="path31" />
    <path
       d="m 433.75,296.51 c 0.85,-1.02 4.08,-4.87 7.25,-8.55 4.64,-5.55 7.87,-9.69 16.54,-21.18 0.34,-0.4 3.17,3.12 6.06,7.36 2.83,4.3 6.85,11.78 6.46,12.12 -0.17,0.17 -4.47,1.59 -9.57,3.12 -5.15,1.59 -13.59,4.25 -18.8,5.95 l -9.46,3 1.53,-1.81 z"
       id="path32" />
    <path
       d="m 165.11,280.48 c -1.25,-1.13 -6.63,-5.89 -11.89,-10.59 -5.27,-4.64 -10.59,-9.46 -11.84,-10.59 l -2.32,-2.1 8.21,-8.21 c 4.53,-4.53 8.5,-8.27 8.78,-8.27 0.34,0 1.47,3.63 2.49,8.1 1.02,4.42 3.51,13.76 5.49,20.73 2.04,6.97 3.57,12.74 3.51,12.86 -0.11,0.06 -1.19,-0.79 -2.44,-1.93 z"
       id="path33" />
    <path
       d="m 421.12,281.5 c 1.98,-6.17 6.29,-21.86 8.27,-30.13 1.87,-7.59 2.66,-10.08 3.29,-10.08 0.51,0 4.53,3.63 8.89,7.99 l 8.04,8.04 -1.76,1.47 c -0.96,0.79 -6.23,5.49 -11.72,10.48 -5.44,4.93 -11.16,10.03 -12.69,11.27 -2.49,2.1 -2.72,2.21 -2.32,0.96 z"
       id="path34" />
    <path
       d="m 210.93,212.18 c -1.7,-3.46 -3.06,-6.74 -3.06,-7.31 0,-1.08 2.49,-1.08 25.32,0.11 l 6.97,0.34 -13.08,6.57 -13.03,6.51 -3.12,-6.23 z"
       id="path35" />
    <path
       d="m 360.86,211.67 -12.74,-6.34 7.08,-0.34 c 3.85,-0.23 11.21,-0.57 16.31,-0.74 l 9.23,-0.4 -0.34,1.59 c -0.57,2.32 -5.61,12.29 -6.29,12.4 -0.28,0.06 -6.29,-2.72 -13.25,-6.17 z"
       id="path36" />
    <path
       d="m 204.7,191.73 c -0.62,-3.4 0.06,-14.44 0.96,-15.29 0.57,-0.51 3.34,-0.79 9.12,-0.96 l 8.38,-0.23 -6.97,7.02 c -3.79,3.91 -7.87,8.1 -9.01,9.29 l -2.1,2.27 -0.4,-2.1 z"
       id="path37" />
    <path
       d="m 382.21,193.14 c -0.06,-0.28 -3.79,-4.36 -8.27,-9.06 l -8.16,-8.5 h 8.55 c 7.59,0 8.5,0.11 8.78,1.02 0.62,2.1 1.02,11.04 0.62,13.99 -0.34,2.83 -1.02,3.96 -1.53,2.55 z"
       id="path38" />
    <path
       d="m 292.61,160.8 c -2.21,-7.36 -4.64,-16.37 -9.06,-33.47 l -4.08,-15.69 2.27,-0.28 c 6.63,-0.79 15.97,-0.91 22.66,-0.28 4.47,0.45 6.74,0.85 5.72,1.08 l -1.7,0.28 -3.74,14.73 c -3.46,13.71 -10.08,37.67 -10.48,38.18 -0.06,0.06 -0.79,-1.98 -1.59,-4.53 z"
       id="path39" />
    <path
       d="m 267.85,145.85 c -9.69,-19.88 -12.52,-26.45 -11.67,-27.24 1.64,-1.53 17.11,-6.4 17.84,-5.61 0.34,0.34 1.13,46.11 0.85,46.67 -0.11,0.11 -3.23,-6.06 -7.02,-13.82 z"
       id="path40" />
    <path
       d="m 313.51,136.39 c 0.23,-12.86 0.51,-23.51 0.62,-23.62 0.11,-0.11 1.93,0.23 4.13,0.79 4.19,1.02 16.09,5.27 14.95,5.32 -0.4,0.06 -0.74,0.28 -0.74,0.57 0,1.59 -18.24,40.27 -18.97,40.27 -0.23,0 -0.23,-10.54 0,-23.34 z"
       id="path41" />
    <path
       d="m 387.65,71.37 c 0,-3.57 0.06,-5.04 0.17,-3.23 0.11,1.76 0.11,4.7 0,6.51 -0.11,1.76 -0.17,0.28 -0.17,-3.29 z"
       id="path42" />
  </g>
</svg>
